<svg width="9" height="20" viewBox="0 0 9 20" fill="none" xmlns="http://www.w3.org/2000/svg">
<path d="M1.61559 17V6.09091H4.54883V7.99432H4.66246C4.86133 7.31723 5.19513 6.80587 5.66388 6.46023C6.13263 6.10985 6.67241 5.93466 7.2832 5.93466C7.43472 5.93466 7.59807 5.94413 7.77326 5.96307C7.94845 5.98201 8.10233 6.00805 8.23491 6.04119V8.72585C8.09286 8.68324 7.89637 8.64536 7.64542 8.61222C7.39447 8.57907 7.16483 8.5625 6.9565 8.5625C6.51142 8.5625 6.1137 8.65956 5.76332 8.85369C5.41767 9.04309 5.14305 9.30824 4.93945 9.64915C4.74059 9.99006 4.64116 10.383 4.64116 10.8281V17H1.61559Z" fill="#F3F3F3"/>
</svg>
